<svg xmlns="http://www.w3.org/2000/svg" viewBox="0 0 32 32" fill="none">
  <rect width="32" height="32" rx="8" fill="#0b5ea8"/>
  <path d="M8 20.5V17a1 1 0 0 1 .08-.39l1.7-4A2 2 0 0 1 11.62 11h8.76a2 2 0 0 1 1.84 1.61l1.7 4A1 1 0 0 1 24 17v3.5a1 1 0 0 1-1 1h-1a1 1 0 0 1-1-1V20H10v.5a1 1 0 0 1-1 1H8a1 1 0 0 1-1-1Z" stroke="#ffffff" stroke-width="1.6" stroke-linejoin="round"/>
  <circle cx="11.5" cy="17.5" r="1.4" fill="#ffffff"/>
  <circle cx="20.5" cy="17.5" r="1.4" fill="#ffffff"/>
  <path d="M9 15h14" stroke="#ffffff" stroke-width="1.4" stroke-linecap="round"/>
</svg>
